<svg xmlns="http://www.w3.org/2000/svg" viewBox="0 0 469.4 101.9"><path d="M2.9.6h8.9c-.6,1-1.1,2-1.7,2.9-5.4,8.4-4.9,15.3,1.8,22.7a35.48,35.48,0,0,0,14.2,9.6,2.92,2.92,0,0,0,2.7-.7c2.4-3.9,4.7-8,6.7-11.5-4.9-3.7-9.8-7.2-14.4-10.9a17.2,17.2,0,0,1-3.4-4.5C16.3,6,16.9,3.9,19.2,3c3.2-1.3,6.6-2.9,9.9-3C42.3-.2,55.5.2,69.5.4,67.3,2.3,65.6,3.6,64.1,5c-7.5,7.1-11.9,16-14.9,25.8a4.51,4.51,0,0,1-3.4,3.5A89.61,89.61,0,0,0,2.9,63.6Z" style="fill:#fff"/><path d="M98.8,60.6c0,6.6-.1,13.3.1,19.9A5,5,0,0,1,97,84.6a20.5,20.5,0,0,1-12.4,4.9c-7.8.4-14.3-4.7-16.2-13.5-2.8-13.5.4-25.6,9.8-35.8,5.1-5.6,12.1-7,18-4.1A4.29,4.29,0,0,1,99,40.5C98.7,47.2,98.8,53.9,98.8,60.6Z" style="fill:#4d2003"/><path d="M41.8,52.8c-2.1,7.4-3.8,14.3-5.9,21A112.54,112.54,0,0,1,29.7,89c-4.3,7.9-10.5,13.3-20.4,12.6C2.5,101.2-1.1,96.9.4,90.2c1.3-6,4.6-11,8.4-15.6A63.63,63.63,0,0,1,41.8,52.8Z" style="fill:#4d2003"/><path d="M99.1,25.5c-10.2-1.7-19.8.4-30.1,2.6,1-3.2,1.7-6.1,2.8-8.9A52.29,52.29,0,0,1,83.6,2,4.65,4.65,0,0,1,85.9.6C90.2.5,94.6.5,99.1.5Z" style="fill:#fff"/><path d="M68.4,101.9h-34A42.47,42.47,0,0,0,51,89.5C55.3,95.9,61.3,99.7,68.4,101.9Z" style="fill:#4d2003"/><path d="M98.6,94.6v7.1H88.4C91.6,99.6,95,97.1,98.6,94.6Z" style="fill:#4d2003"/><path d="M121.9,9.3h19.6c13.3,0,22.4,7.5,22.4,19.8S154.8,49,141.5,49H121.9V9.3Zm19,29.3c5.6,0,9.5-3.3,9.5-9.4s-3.9-9.4-9.5-9.4h-5.6V38.6Z" style="fill:#fff"/><path d="M168.8,9.3h13.4V49H168.8Z" style="fill:#fff"/><path d="M215.7,42.1H200.6L197.9,49H184.3L201.7,9.3h13.2L232.2,49H218.3ZM212,32.5l-3.9-10-3.9,10Z" style="fill:#fff"/><path d="M269.8,49l-.1-18.1-8.6,14.5h-5.9l-8.6-13.9V49H234.4V9.3h11l12.9,21.2L270.9,9.3h11L282,49Z" style="fill:#fff"/><path d="M327.6,38.1c0,6.9-5.8,10.9-16.8,10.9H288.4V9.3h21.2c11,0,16,4.4,16,10.4a9.32,9.32,0,0,1-5.5,8.6C324.9,30,327.6,33.4,327.6,38.1Zm-26-19.4v5.9h6.2c3,0,4.4-1,4.4-2.9s-1.4-2.9-4.4-2.9C307.9,18.7,301.6,18.7,301.6,18.7Zm12.5,17.8c0-2-1.5-3.1-4.4-3.1h-8v6.2h8C312.6,39.7,314.1,38.6,314.1,36.5Z" style="fill:#fff"/><path d="M332.3,9.3h13.4V49H332.3Z" style="fill:#fff"/><path d="M352.1,9.3h13.4V38.6h17.9V49H352.1V9.3Z" style="fill:#fff"/><path d="M414.8,42.1H399.7L397,49H383.4L400.8,9.3H414L431.3,49H417.5Zm-3.7-9.6-3.9-10-3.9,10Z" style="fill:#fff"/><path d="M454.5,34.6V49H441.1V34.4l-15-25.1h14.1L448.3,23l8.2-13.7h12.9Z" style="fill:#fff"/><path d="M211.1,94.9V78.6L203,92.1h-2l-8.1-13.3V94.9h-4.4V70.2h3.8l9.8,16.3,9.6-16.3h3.8V94.8h-4.4Z" style="fill:#4d2003"/><path d="M222.1,70.2h4.6V94.9h-4.6Z" style="fill:#4d2003"/><path d="M255.3,70.2V94.9h-3.8L237.9,78.2V94.9h-4.5V70.2h3.8l13.6,16.7V70.2Z" style="fill:#4d2003"/><path d="M261.9,70.2h4.6V94.9h-4.6Z" style="fill:#4d2003"/><path d="M271,92.3l1.6-3.6a13.57,13.57,0,0,0,8.1,2.7c3.8,0,5.5-1.4,5.5-3.2,0-5.3-14.6-1.8-14.6-11,0-4,3.2-7.4,9.9-7.4a15.42,15.42,0,0,1,8.2,2.2l-1.4,3.6a13.49,13.49,0,0,0-6.8-1.9c-3.8,0-5.4,1.5-5.4,3.4,0,5.2,14.6,1.8,14.6,10.9,0,3.9-3.2,7.3-10,7.3C276.9,95.2,273.1,94.1,271,92.3Z" style="fill:#4d2003"/><path d="M299.9,74.1h-8.2V70.2h20.9v3.9h-8.2V94.9h-4.6V74.1Z" style="fill:#4d2003"/><path d="M332.2,94.9l-5-7.2h-6.6v7.2H316V70.2h10.1c6.5,0,10.5,3.3,10.5,8.8a8,8,0,0,1-5.2,7.8l5.7,8.1ZM326,74.1h-5.4v9.8H326c4,0,6.1-1.8,6.1-4.9S330.1,74.1,326,74.1Z" style="fill:#4d2003"/><path d="M341.9,70.2h4.6V94.9h-4.6Z" style="fill:#4d2003"/><path d="M371.6,91.1v3.8H353.1V70.2h18V74H357.7v6.4h11.9v3.8H357.7V91l13.9.1Z" style="fill:#4d2003"/><path d="M374.6,92.3l1.6-3.6a13.57,13.57,0,0,0,8.1,2.7c3.8,0,5.5-1.4,5.5-3.2,0-5.3-14.6-1.8-14.6-11,0-4,3.2-7.4,9.9-7.4a15.42,15.42,0,0,1,8.2,2.2l-1.4,3.6a13.49,13.49,0,0,0-6.8-1.9c-3.8,0-5.4,1.5-5.4,3.4,0,5.2,14.6,1.8,14.6,10.9,0,3.9-3.2,7.3-10,7.3C380.5,95.2,376.6,94.1,374.6,92.3Z" style="fill:#4d2003"/></svg>