<svg id="Calque_1" data-name="Calque 1" xmlns="http://www.w3.org/2000/svg" viewBox="0 0 304.96 327.5"><defs><style>.cls-1{fill:#fff;stroke:#fff;stroke-miterlimit:10;}</style></defs><path class="cls-1" d="M298.83,108.49c-.48,53-43.76,95.73-96.61,95.32a96.11,96.11,0,0,1-95.51-97.28c.36-53.09,43.91-95.26,97.88-94.77C256.87,12.23,299.31,55.8,298.83,108.49Zm-91.77,43.72c11.5,0,22.27.11,33-.12,1.56,0,4.23-1.49,4.46-2.67,2.45-12.26,4.51-24.61,6.75-37.3H207.06ZM154.15,112c2.26,13,4.1,24.64,6.51,36.19.34,1.63,3.34,3.75,5.19,3.83,9.39.38,18.82.32,28.21,0,1.66-.05,4.65-1.95,4.68-3.05.34-12.29.21-24.6.21-37Zm97.17-8.57c-2.11-12.33-3.94-23.69-6.13-35a5.33,5.33,0,0,0-3.84-3.31c-11.26-.27-22.54-.16-34.23-.16v38.44ZM199.1,64.93c-12.31,0-23.1-.1-33.89.11-1.6,0-4.35,1.33-4.57,2.43-2.3,11.76-4.19,23.59-6.38,36.48,15.09,0,27.82.15,40.53-.21,1.48,0,4.07-2.9,4.12-4.51C199.27,88.21,199.1,77.16,199.1,64.93Zm53.67,87.28c8,0,15.49.14,22.93-.1,1.68-.05,4.14-1,4.86-2.23,6.53-11.67,10.66-24,10.36-37.86H258.6C256.66,125.29,254.81,138.1,252.77,152.21Zm-105.7-39.89H112.12c4.28,13,7.88,24.45,12,35.74a7.47,7.47,0,0,0,5.37,3.95c7.68.45,15.41.19,23.32.19C150.81,138.51,149,125.71,147.07,112.32Zm111.34-9.12h34.83c-3.83-12.35-7.05-23.4-10.81-34.26-.61-1.75-3.53-3.7-5.48-3.81-7.68-.44-15.39-.18-23.69-.18C255,78.17,256.69,90.4,258.41,103.2Zm-111.31.35c1.75-12.85,3.44-25.31,5.26-38.62-8.25,0-16-.2-23.67.15a7.15,7.15,0,0,0-5.16,3.19c-5.54,10.9-9.35,22.29-8.69,35.29Zm60.14-83V56.57h33.27C236.65,38.27,221.3,21.69,207.24,20.51ZM198.6,56.88V20.52c-14.28.77-31.74,20.07-33.07,36.36ZM240,160.42H206.62c0,9.49,0,18.34,0,27.18,0,2.46.22,4.91.33,7.37C220.66,194,235.23,178.81,240,160.42ZM198.5,195.05V160.51h-33C170.45,178.92,184.45,193.59,198.5,195.05ZM233.32,24.53C238.87,35.28,243.84,45,249,54.64c.57,1.07,2,2.35,3.08,2.38,7.23.21,14.47.11,23.5.11C263.66,40.94,250.44,30.86,233.32,24.53ZM130.41,57.18c8.55,0,15.33.13,22.09-.1a5.44,5.44,0,0,0,3.95-2.26c5.28-9.71,10.31-19.55,16.09-30.67C155.24,31.32,141.43,40.78,130.41,57.18ZM274.58,159.69c-8.66,0-15-.16-21.26.11-1.66.07-4,1.07-4.76,2.38-5.17,9.15-10,18.49-15.46,28.78C249.81,184.8,262.73,175.24,274.58,159.69ZM131,159.85c12.1,15.46,25,25.19,41.59,31.22-5.44-10.16-10.29-19.38-15.36-28.48a5.5,5.5,0,0,0-3.72-2.62C146.75,159.72,140,159.85,131,159.85Z" transform="translate(-32.27 -11.26)"/><path class="cls-1" d="M251.44,274c13.17-8.22,26.08-16.88,39.59-24.5a142.56,142.56,0,0,1,28.75-12.74c4.36-1.31,12,.46,14.7,3.71s3,11.32.74,15c-6,9.82-12.41,20.7-21.51,27.08-24,16.88-49.41,31.94-74.63,47.07-19.71,11.82-40.4,10.38-61,1.84-20.26-8.42-40.21-17.65-60.72-25.39-17.72-6.68-35.85-6.35-53.79.73-13.31,5.25-16.91,3.54-24.22-8.94-8.28-14.13-7-29.37-5.57-44.67.24-2.49.73-5,.94-7.44C36,232.1,36.06,233.06,49.41,231.4c13.82-1.71,28-3.93,40.93-8.79,28.41-10.69,55.06-10.38,81.54,5.57a53.88,53.88,0,0,0,23.58,7c13.24.85,26.62-.45,39.94-.87,1.39,0,2.77-.26,4.16-.34,11.61-.66,21.29,3.7,23.92,11.39,3.46,10.12-2.41,16.93-9.1,23.25-1.39,1.32-2.84,2.57-4.27,3.85C250.55,273,251,273.5,251.44,274ZM39.88,268.9l-2.09.79c3.33,9.22,6.5,18.51,10.06,27.65,1.81,4.65,5.38,6,10.15,3.87,26.73-12.13,52.61-7.33,78.21,3.91,16,7,32.08,14,48.25,20.69,17.46,7.22,35,7.12,51.34-2.65,24.55-14.66,49-29.51,72.64-45.61,7.92-5.41,13.37-14.67,19.24-22.69,1.76-2.4,1.1-6.57,1.55-9.92-3.43-.27-7.1-1.43-10.25-.61a61.65,61.65,0,0,0-15.36,6.24c-18.24,10.65-36.23,21.71-54.35,32.56-15.17,9.08-31.09,10.85-48.09,5.61-11.4-3.51-23.15-5.91-34.65-9.12-2.5-.7-4.63-2.74-6.93-4.16,2.37-2.13,4.57-5.8,7.14-6.09,6.25-.7,12.7-.12,19,.47,11,1,22,3.16,33.09,3.54,11.66.39,23-2.57,31.27-11.33,3.38-3.57,4.37-9.4,6.45-14.2-5.08-2.19-10-5.69-15.27-6.25-6.78-.73-13.81,1.25-20.75,1.43-18.32.47-36.77,1.76-53.41-8.74-21.41-13.51-44.08-15.57-67.88-6.87-16.1,5.89-32.27,11.75-49.86,10.85-4.72-.24-7.16,1.5-7.45,6.54C41.5,252.85,40.59,260.87,39.88,268.9Zm201.4,9.49-35.63,3.26C218.37,285.92,229.5,285.23,241.28,278.39Z" transform="translate(-32.27 -11.26)"/></svg>