<svg id="Calque_1" data-name="Calque 1" xmlns="http://www.w3.org/2000/svg" viewBox="0 0 325.91 326.78"><defs><style>.cls-1{fill:#fff;stroke:#fff;stroke-miterlimit:10;stroke-width:4px;}</style></defs><path class="cls-1" d="M14.05,177.17c.24-88.89,72.4-161.48,161.1-160.77,96.52.77,158,75.74,160.68,151.64,3.92,111-82.32,171.6-161.67,171.13C85.57,338.65,13.81,266,14.05,177.17Zm150.23,75.25c-5.72-13.8-8.61-27.83-20.51-37.23-3.44-2.71-5.93-6.73-8.55-10.36-30.59-42.3-17.91-89.09,30.22-103.93,17.18-5.3,28.2-14.58,37.63-28.14a115.22,115.22,0,0,1,8.6-11.57c1.92-2.14,4.81-3.4,7.26-5.06,1.32,2.37,3.47,4.62,3.82,7.12,2.39,17.44,5.47,34.88,6.29,52.41,1.49,32.07-7.84,60.15-34.22,80.76a50.55,50.55,0,0,0-9,8.64c-3.67,4.76-9,9.85-9.43,15.12-.66,8.54,1.6,17.5,4.17,25.8.27.87,10.9-1.45,16.71-2.33.94-.14,1.84-.57,2.77-.8,34.33-8.27,68.44-12.77,101.91,4,2.57,1.29,9.51-.24,10.21-2.07,6.05-15.78,13.62-31.58,15.93-48.05,3.48-24.77-.48-49.42-9.69-73.22-22.71-58.68-78.11-97.77-141.06-98.59-113-1.48-189.1,116.82-140.07,218,1.43,2.94,3.58,6.35,6.32,7.72C83,270.51,123,266.07,164.28,252.42Zm141.85,4.44c-21.65-10.36-43.13-16.11-65.08-12.25-29.87,5.26-59.31,13.1-88.77,20.47-31.24,7.81-62.34,11.53-93.7,1-2.25-.76-4.62-1.18-6.93-1.76,32.64,46.19,76.92,69,133,65.68C237.05,326.91,276.81,301.45,306.13,256.86ZM218.22,73.61l-4-.68c-9.73,11.75-19,23.88-29.27,35.17-30.59,33.73-36.31,72.11-22.43,114.42.59,1.81,1.76,3.43,1.38,2.72,4.9-8.26,9.63-17.44,15.56-25.76,3.65-5.12,8.91-9.19,13.82-13.28,16.78-13.95,25.67-32.18,26.45-53.49C220.45,113.05,218.81,93.31,218.22,73.61ZM147,203.7c-6.81-35.42,4.45-66.12,23.78-95.06-20.68,5.26-35.42,16.91-41.46,36.73C122.44,167.82,131.9,186.56,147,203.7Z" transform="translate(-12.05 -14.39)"/></svg>