<?xml version="1.0" encoding="utf-8"?>
<!-- Generator: Adobe Illustrator 25.2.0, SVG Export Plug-In . SVG Version: 6.00 Build 0)  -->
<svg version="1.2" baseProfile="tiny" id="Calque_1"
	 xmlns="http://www.w3.org/2000/svg" xmlns:xlink="http://www.w3.org/1999/xlink" x="0px" y="0px" viewBox="0 0 469.4 101.9"
	 overflow="visible" xml:space="preserve">
<path fill="#FFFFFF" d="M2.9,0.6c2.9,0,5.7,0,8.9,0c-0.6,1-1.1,2-1.7,2.9c-5.4,8.4-4.9,15.3,1.8,22.7c3.9,4.3,8.7,7.6,14.2,9.6
	c0.7,0.3,2.3-0.1,2.7-0.7c2.4-3.9,4.7-8,6.7-11.5c-4.9-3.7-9.8-7.2-14.4-10.9c-1.4-1.1-2.4-2.9-3.4-4.5C16.3,6,16.9,3.9,19.2,3
	c3.2-1.3,6.6-2.9,9.9-3c13.2-0.2,26.4,0.2,40.4,0.4c-2.2,1.9-3.9,3.2-5.4,4.6c-7.5,7.1-11.9,16-14.9,25.8c-0.6,1.9-1.4,2.9-3.4,3.5
	C28.7,39.9,14.4,49.4,2.9,63.6C2.9,42.6,2.9,21.7,2.9,0.6z"/>
<path fill="#FFFFFF" d="M98.8,60.6c0,6.6-0.1,13.3,0.1,19.9c0,1.8-0.6,2.9-1.9,4.1c-3.6,3.1-7.8,4.6-12.4,4.9
	c-7.8,0.4-14.3-4.7-16.2-13.5c-2.8-13.5,0.4-25.6,9.8-35.8c5.1-5.6,12.1-7,18-4.1c1.9,0.9,2.8,2.1,2.8,4.4
	C98.7,47.2,98.8,53.9,98.8,60.6z"/>
<path fill="#FFFFFF" d="M41.8,52.8c-2.1,7.4-3.8,14.3-5.9,21C34.1,79,32.2,84.2,29.7,89c-4.3,7.9-10.5,13.3-20.4,12.6
	c-6.8-0.4-10.4-4.7-8.9-11.4c1.3-6,4.6-11,8.4-15.6C17.3,64.1,27.9,56.8,41.8,52.8z"/>
<path fill="#FFFFFF" d="M99.1,25.5c-10.2-1.7-19.8,0.4-30.1,2.6c1-3.2,1.7-6.1,2.8-8.9c2.7-6.6,6.8-12.2,11.8-17.2
	c0.6-0.6,1.5-1.3,2.3-1.4c4.3-0.1,8.7-0.1,13.2-0.1C99.1,8.9,99.1,17,99.1,25.5z"/>
<path fill="#FFFFFF" d="M68.4,101.9c-11.3,0-22.6,0-34,0c6.5-2.7,11.8-6.7,16.6-12.4C55.3,95.9,61.3,99.7,68.4,101.9z"/>
<path fill="#FFFFFF" d="M98.6,94.6c0,2.3,0,4.6,0,7.1c-3.6,0-7.1,0-10.2,0C91.6,99.6,95,97.1,98.6,94.6z"/>
<g>
	<path fill="#FFFFFF" d="M121.9,9.3h19.6c13.3,0,22.4,7.5,22.4,19.8S154.8,49,141.5,49h-19.6L121.9,9.3L121.9,9.3z M140.9,38.6
		c5.6,0,9.5-3.3,9.5-9.4s-3.9-9.4-9.5-9.4h-5.6v18.8L140.9,38.6L140.9,38.6z"/>
	<path fill="#FFFFFF" d="M168.8,9.3h13.4V49h-13.4V9.3z"/>
	<path fill="#FFFFFF" d="M215.7,42.1h-15.1l-2.7,6.9h-13.6l17.4-39.7h13.2L232.2,49h-13.9L215.7,42.1z M212,32.5l-3.9-10l-3.9,10
		H212z"/>
	<path fill="#FFFFFF" d="M269.8,49l-0.1-18.1l-8.6,14.5h-5.9l-8.6-13.9V49h-12.2V9.3h11l12.9,21.2l12.6-21.2h11L282,49
		C282,49,269.8,49,269.8,49z"/>
	<path fill="#FFFFFF" d="M327.6,38.1c0,6.9-5.8,10.9-16.8,10.9h-22.4V9.3h21.2c11,0,16,4.4,16,10.4c0,3.7-1.9,6.8-5.5,8.6
		C324.9,30,327.6,33.4,327.6,38.1z M301.6,18.7v5.9h6.2c3,0,4.4-1,4.4-2.9s-1.4-2.9-4.4-2.9C307.9,18.7,301.6,18.7,301.6,18.7z
		 M314.1,36.5c0-2-1.5-3.1-4.4-3.1h-8v6.2h8C312.6,39.7,314.1,38.6,314.1,36.5z"/>
	<path fill="#FFFFFF" d="M332.3,9.3h13.4V49h-13.4V9.3z"/>
	<path fill="#FFFFFF" d="M352.1,9.3h13.4v29.3h17.9V49h-31.3L352.1,9.3L352.1,9.3z"/>
	<path fill="#FFFFFF" d="M414.8,42.1h-15.1L397,49h-13.6l17.4-39.7h13.2L431.3,49h-13.8L414.8,42.1z M411.1,32.5l-3.9-10l-3.9,10
		H411.1z"/>
	<path fill="#FFFFFF" d="M454.5,34.6V49h-13.4V34.4l-15-25.1h14.1l8.1,13.7l8.2-13.7h12.9L454.5,34.6z"/>
</g>
<g>
	<path fill="#FFFFFF" d="M211.1,94.9l0-16.3L203,92.1h-2l-8.1-13.3v16.1h-4.4V70.2h3.8l9.8,16.3l9.6-16.3h3.8l0,24.6H211.1z"/>
	<path fill="#FFFFFF" d="M222.1,70.2h4.6v24.7h-4.6V70.2z"/>
	<path fill="#FFFFFF" d="M255.3,70.2v24.7h-3.8l-13.6-16.7v16.7h-4.5V70.2h3.8l13.6,16.7V70.2H255.3z"/>
	<path fill="#FFFFFF" d="M261.9,70.2h4.6v24.7h-4.6V70.2z"/>
	<path fill="#FFFFFF" d="M271,92.3l1.6-3.6c2,1.6,5.1,2.7,8.1,2.7c3.8,0,5.5-1.4,5.5-3.2c0-5.3-14.6-1.8-14.6-11
		c0-4,3.2-7.4,9.9-7.4c3,0,6.1,0.8,8.2,2.2l-1.4,3.6c-2.2-1.3-4.6-1.9-6.8-1.9c-3.8,0-5.4,1.5-5.4,3.4c0,5.2,14.6,1.8,14.6,10.9
		c0,3.9-3.2,7.3-10,7.3C276.9,95.2,273.1,94.1,271,92.3z"/>
	<path fill="#FFFFFF" d="M299.9,74.1h-8.2v-3.9h20.9v3.9h-8.2v20.8h-4.6V74.1z"/>
	<path fill="#FFFFFF" d="M332.2,94.9l-5-7.2c-0.3,0-0.6,0-1,0h-5.6v7.2h-4.6V70.2h10.1c6.5,0,10.5,3.3,10.5,8.8
		c0,3.7-1.9,6.5-5.2,7.8l5.7,8.1H332.2z M326,74.1h-5.4v9.8h5.4c4,0,6.1-1.8,6.1-4.9S330.1,74.1,326,74.1z"/>
	<path fill="#FFFFFF" d="M341.9,70.2h4.6v24.7h-4.6V70.2z"/>
	<path fill="#FFFFFF" d="M371.6,91.1v3.8h-18.5V70.2h18v3.8h-13.4v6.4h11.9v3.8h-11.9v6.8L371.6,91.1L371.6,91.1z"/>
	<path fill="#FFFFFF" d="M374.6,92.3l1.6-3.6c2,1.6,5.1,2.7,8.1,2.7c3.8,0,5.5-1.4,5.5-3.2c0-5.3-14.6-1.8-14.6-11
		c0-4,3.2-7.4,9.9-7.4c3,0,6.1,0.8,8.2,2.2l-1.4,3.6c-2.2-1.3-4.6-1.9-6.8-1.9c-3.8,0-5.4,1.5-5.4,3.4c0,5.2,14.6,1.8,14.6,10.9
		c0,3.9-3.2,7.3-10,7.3C380.5,95.2,376.6,94.1,374.6,92.3z"/>
</g>
</svg>
